name C:\Users\r0593348\3dpredictsim\Results\MidTarsalJoint\Fal_s1_bCst_PF_Natali2010_ls150_MT_k500_MTP_T2_ig24.mot
datacolumns 128
datarows 4
range 1.68707362 1.72081509
endheader
time	pelvis_tilt	pelvis_list	pelvis_rotation	pelvis_tx	pelvis_ty	pelvis_tz	hip_flexion_l	hip_adduction_l	hip_rotation_l	hip_flexion_r	hip_adduction_r	hip_rotation_r	knee_angle_l	knee_angle_r	ankle_angle_l	ankle_angle_r	subtalar_angle_l	subtalar_angle_r	mtj_angle_l	mtj_angle_r	mtp_angle_l	mtp_angle_r	lumbar_extension	lumbar_bending	lumbar_rotation	arm_flex_l	arm_add_l	arm_rot_l	arm_flex_r	arm_add_r	arm_rot_r	elbow_flex_l	elbow_flex_r	pro_sup_l	pro_sup_r	glut_med1_l/activation	glut_med2_l/activation	glut_med3_l/activation	glut_min1_l/activation	glut_min2_l/activation	glut_min3_l/activation	semimem_l/activation	semiten_l/activation	bifemlh_l/activation	bifemsh_l/activation	sar_l/activation	add_long_l/activation	add_brev_l/activation	add_mag1_l/activation	add_mag2_l/activation	add_mag3_l/activation	tfl_l/activation	pect_l/activation	grac_l/activation	glut_max1_l/activation	glut_max2_l/activation	glut_max3_l/activation	iliacus_l/activation	psoas_l/activation	quad_fem_l/activation	gem_l/activation	peri_l/activation	rect_fem_l/activation	vas_med_l/activation	vas_int_l/activation	vas_lat_l/activation	med_gas_l/activation	lat_gas_l/activation	soleus_l/activation	tib_post_l/activation	flex_dig_l/activation	flex_hal_l/activation	tib_ant_l/activation	per_brev_l/activation	per_long_l/activation	per_tert_l/activation	ext_dig_l/activation	ext_hal_l/activation	ercspn_l/activation	intobl_l/activation	extobl_l/activation	glut_med1_r/activation	glut_med2_r/activation	glut_med3_r/activation	glut_min1_r/activation	glut_min2_r/activation	glut_min3_r/activation	semimem_r/activation	semiten_r/activation	bifemlh_r/activation	bifemsh_r/activation	sar_r/activation	add_long_r/activation	add_brev_r/activation	add_mag1_r/activation	add_mag2_r/activation	add_mag3_r/activation	tfl_r/activation	pect_r/activation	grac_r/activation	glut_max1_r/activation	glut_max2_r/activation	glut_max3_r/activation	iliacus_r/activation	psoas_r/activation	quad_fem_r/activation	gem_r/activation	peri_r/activation	rect_fem_r/activation	vas_med_r/activation	vas_int_r/activation	vas_lat_r/activation	med_gas_r/activation	lat_gas_r/activation	soleus_r/activation	tib_post_r/activation	flex_dig_r/activation	flex_hal_r/activation	tib_ant_r/activation	per_brev_r/activation	per_long_r/activation	per_tert_r/activation	ext_dig_r/activation	ext_hal_r/activation	ercspn_r/activation	intobl_r/activation	extobl_r/activation	
          1.68707362	         -2.92998453	          2.06892559	         -5.06313172	          2.10884203	          0.91963423	          0.00206409	         29.55077003	          3.40953426	         -2.06165842	        -16.99243254	         -0.85285246	          6.86953346	        -11.63748004	         -6.79741102	          6.25438359	         -0.84955363	         -4.73860231	          8.23704391	         -0.01066214	          3.08318425	         -0.92638880	         15.41003268	         -2.17325517	         -0.31345486	          1.91225531	         -3.86025972	        -13.45235038	          7.92228774	          5.19565654	        -13.45262162	         17.03446050	         15.78415825	         33.07746852	         86.51662706	         86.51662706	          0.05000695	          0.05000087	          0.05937236	          0.05000028	          0.05000037	          0.05000270	          0.09979603	          0.05937294	          0.21145526	          0.05000115	          0.05000134	          0.11875216	          0.19998726	          0.19154587	          0.16336025	          0.10807465	          0.05937259	          0.05001771	          0.11133289	          0.05937326	          0.05937335	          0.09913545	          0.05000023	          0.05000028	          0.18347261	          0.05000213	          0.05000078	          0.05000022	          0.07593403	          0.07731619	          0.06429933	          0.05250661	          0.05000673	          0.05937250	          0.05000059	          0.05000150	          0.05000188	          0.48894779	          0.29768303	          0.18004211	          0.11192976	          0.46676309	          0.05000109	          0.05937279	          0.12495437	          0.10673315	          0.33383711	          0.10339018	          0.08094794	          0.33837920	          0.21261690	          0.11700880	          0.05000163	          0.05000040	          0.05000029	          0.06370920	          0.11639666	          0.05000020	          0.05000018	          0.05000026	          0.05000072	          0.05000051	          0.33305347	          0.05000087	          0.05000063	          0.05002424	          0.05000584	          0.05000143	          0.40851916	          0.63778985	          0.05000032	          0.05000124	          0.05665859	          0.21144943	          0.05000084	          0.05000074	          0.05000071	          0.30361612	          0.41095883	          0.33414740	          0.28215628	          0.29129402	          0.37984925	          0.05000012	          0.05937140	          0.12237593	          0.05000062	          0.05000017	          0.05000060	          0.05000002	          0.05000002	          0.05000005	
          1.69832078	         -2.92931126	          2.16597416	         -5.34240218	          2.12565255	          0.91875210	          0.00185365	         28.94313419	          3.80073804	         -1.88150225	        -16.89716980	         -1.15673355	          6.67182067	        -11.60038864	         -8.64543047	          5.61969429	         -1.40809559	         -5.13853084	          9.24162766	         -0.01991703	          2.49840472	         -0.92735317	         16.99742646	         -1.98543914	         -0.52008656	          1.98607633	         -4.71246907	        -13.44976341	          7.59225129	          4.93125680	        -13.46265586	         17.36043530	         15.39158521	         34.26011436	         86.51662706	         86.51662706	          0.05000125	          0.05000064	          0.05000037	          0.05937288	          0.05002521	          0.05000049	          0.08404218	          0.05000044	          0.17807558	          0.05000044	          0.05000226	          0.11804500	          0.23340661	          0.24064907	          0.16549996	          0.09610144	          0.05000037	          0.07050229	          0.09375946	          0.05000104	          0.05000078	          0.11556721	          0.06822369	          0.06289875	          0.53336203	          0.17077073	          0.14736188	          0.07273696	          0.19135070	          0.19017911	          0.16401660	          0.05000003	          0.05000007	          0.05000001	          0.05000041	          0.05000174	          0.05000182	          0.54845891	          0.25069708	          0.18867211	          0.25370179	          0.49307575	          0.05938839	          0.05000016	          0.10522895	          0.08988415	          0.28113742	          0.08706894	          0.06816952	          0.28496251	          0.17905308	          0.09853776	          0.05000529	          0.05000099	          0.05000123	          0.05365214	          0.09802252	          0.10137575	          0.10011316	          0.05742928	          0.05002687	          0.05004895	          0.28047758	          0.06699468	          0.05001538	          0.05000561	          0.05000386	          0.05000485	          0.34402999	          0.54521611	          0.05000226	          0.05572925	          0.05937287	          0.17806997	          0.05527776	          0.15400249	          0.13602254	          0.25568695	          0.34608451	          0.29442972	          0.25346829	          0.24531285	          0.32081623	          0.05000006	          0.05000086	          0.11949179	          0.05000026	          0.05000007	          0.05000033	          0.05000013	          0.07050367	          0.05000313	
          1.70956794	         -2.92478290	          2.26607001	         -5.59500804	          2.14279326	          0.91790544	          0.00166572	         28.21627843	          4.11113964	         -1.63879000	        -16.73725004	         -1.46168235	          6.46436058	        -11.99083152	        -10.59827767	          4.98664740	         -2.11687435	         -5.54764603	         10.22019288	         -0.15068347	          1.81285606	         -0.94219470	         18.62799025	         -1.77481251	         -0.73923924	          2.04849580	         -5.60411872	        -13.45501811	          7.30697415	          4.58270475	        -13.46969368	         17.60349320	         15.06036145	         35.43730721	         86.51662706	         86.51662706	          0.23072173	          0.05000042	          0.05000113	          0.05000053	          0.05000039	          0.24164362	          0.09493475	          0.08663204	          0.16001265	          0.05000093	          0.05000302	          0.09941044	          0.19656101	          0.20266023	          0.13937438	          0.11073583	          0.05000146	          0.05937615	          0.07896199	          0.05000135	          0.09792528	          0.09732394	          0.05937236	          0.05297242	          0.44916497	          0.14381282	          0.17502191	          0.06125464	          0.16114396	          0.16015732	          0.13812483	          0.05287699	          0.05436047	          0.05264691	          0.05000232	          0.05000359	          0.05000293	          0.46538162	          0.27734062	          0.15888834	          0.21365235	          0.54717148	          0.05001330	          0.05000006	          0.11804512	          0.07569495	          0.35458641	          0.07332419	          0.05740830	          0.23997844	          0.15078770	          0.08298256	          0.05000516	          0.05000154	          0.05000117	          0.05000042	          0.08254905	          0.13943056	          0.11488850	          0.05937694	          0.05937324	          0.05937063	          0.23620198	          0.08372266	          0.05008295	          0.05002733	          0.05002915	          0.05932496	          0.28972135	          0.53041815	          0.05595920	          0.05000288	          0.05000042	          0.14995971	          0.10613600	          0.12969228	          0.11455053	          0.21532393	          0.29145125	          0.24795072	          0.21345564	          0.20658788	          0.27017220	          0.05000006	          0.05000105	          0.14681364	          0.05000030	          0.05000012	          0.05000036	          0.05487094	          0.05937389	          0.05937269	
          1.72081509	         -2.91801575	          2.36898172	         -5.81341786	          2.16009679	          0.91710261	          0.00147148	         27.37937392	          4.36824957	         -1.38433358	        -16.48570491	         -1.76324955	          6.25618059	        -12.36935764	        -12.68367629	          4.43674762	         -2.99419305	         -5.95157620	         11.15327538	         -0.10111898	          1.07457892	         -0.92704570	         20.21951921	         -1.55891274	         -0.96926994	          2.10209568	         -6.49340473	        -13.46592569	          7.07984498	          4.17234568	        -13.47893217	         17.77370980	         14.76689427	         36.60182299	         86.51662706	         86.51662706	          0.31983503	          0.26578826	          0.26605736	          0.14075479	          0.21282616	          0.20349832	          0.07994833	          0.07295673	          0.13475294	          0.07237115	          0.05000678	          0.08371745	          0.16553173	          0.17066829	          0.11737298	          0.13343032	          0.05000118	          0.05000358	          0.06649737	          0.19484648	          0.15796432	          0.10251840	          0.05000016	          0.05000018	          0.37825940	          0.12111061	          0.14739311	          0.05158499	          0.13661382	          0.15199785	          0.11634344	          0.05000038	          0.05000084	          0.05000013	          0.05000015	          0.05000035	          0.05000048	          0.58916762	          0.33952238	          0.18175491	          0.52730169	          0.55465741	          0.23751164	          0.07300194	          0.09941062	          0.06374568	          0.30957197	          0.06174920	          0.05000023	          0.33372563	          0.12698436	          0.06988296	          0.05000534	          0.05000038	          0.05000033	          0.05000055	          0.06951967	          0.11742489	          0.09675237	          0.05000409	          0.05000265	          0.05000099	          0.23224701	          0.07050967	          0.05000129	          0.05000297	          0.05000170	          0.05000111	          0.24398576	          0.48736295	          0.05000023	          0.05000160	          0.05000088	          0.12628738	          0.08941483	          0.13546143	          0.11805282	          0.18133265	          0.24544244	          0.20880894	          0.17975936	          0.17397591	          0.22752269	          0.05705731	          0.08666868	          0.14984509	          0.05000074	          0.10077616	          0.05000140	          0.06618431	          0.05000107	          0.05000011	
